<mxfile host="Electron" modified="2024-06-09T08:47:12.972Z" agent="Mozilla/5.0 (Macintosh; Intel Mac OS X 10_15_7) AppleWebKit/537.36 (KHTML, like Gecko) draw.io/22.1.16 Chrome/120.0.6099.109 Electron/28.1.0 Safari/537.36" etag="7VDcxMn-8MWYYCh0Y9ej" version="22.1.16" type="device">
  <diagram name="페이지-1" id="Oi5Pv21i8Pdk0Cu5aa3B">
    <mxGraphModel dx="1815" dy="1097" grid="1" gridSize="10" guides="1" tooltips="1" connect="1" arrows="1" fold="1" page="1" pageScale="1" pageWidth="827" pageHeight="1169" math="0" shadow="0">
      <root>
        <mxCell id="0" />
        <mxCell id="1" parent="0" />
        <mxCell id="ah4opufapIcl6T_tNm1O-3" value="누적합 kth에서 k이전 인덱스에서 나머지가 kth와 같은 누적합이 있는지 확인&amp;nbsp;" style="swimlane;whiteSpace=wrap;html=1;" vertex="1" parent="1">
          <mxGeometry x="10" y="140" width="500" height="530" as="geometry" />
        </mxCell>
        <mxCell id="ah4opufapIcl6T_tNm1O-9" value="int index = 0 부터 nums.size() 까지 반복" style="swimlane;whiteSpace=wrap;html=1;" vertex="1" parent="ah4opufapIcl6T_tNm1O-3">
          <mxGeometry y="160" width="500" height="335" as="geometry" />
        </mxCell>
        <mxCell id="ah4opufapIcl6T_tNm1O-10" value="&lt;h1&gt;예외처리&lt;/h1&gt;&lt;p&gt;1. 없음&lt;/p&gt;" style="text;html=1;strokeColor=none;fillColor=none;spacing=5;spacingTop=-20;whiteSpace=wrap;overflow=hidden;rounded=0;" vertex="1" parent="ah4opufapIcl6T_tNm1O-9">
          <mxGeometry x="330" y="35" width="190" height="120" as="geometry" />
        </mxCell>
        <mxCell id="ah4opufapIcl6T_tNm1O-23" value="yes" style="edgeStyle=orthogonalEdgeStyle;rounded=0;orthogonalLoop=1;jettySize=auto;html=1;" edge="1" parent="ah4opufapIcl6T_tNm1O-9" source="ah4opufapIcl6T_tNm1O-20" target="ah4opufapIcl6T_tNm1O-22">
          <mxGeometry relative="1" as="geometry" />
        </mxCell>
        <mxCell id="ah4opufapIcl6T_tNm1O-27" value="no" style="edgeStyle=orthogonalEdgeStyle;rounded=0;orthogonalLoop=1;jettySize=auto;html=1;exitX=1;exitY=0.5;exitDx=0;exitDy=0;" edge="1" parent="ah4opufapIcl6T_tNm1O-9" source="ah4opufapIcl6T_tNm1O-20" target="ah4opufapIcl6T_tNm1O-26">
          <mxGeometry relative="1" as="geometry">
            <mxPoint x="250" y="177" as="sourcePoint" />
          </mxGeometry>
        </mxCell>
        <mxCell id="ah4opufapIcl6T_tNm1O-20" value="prefixSum.find(sum % k) 가 있는가?" style="rhombus;whiteSpace=wrap;html=1;" vertex="1" parent="ah4opufapIcl6T_tNm1O-9">
          <mxGeometry x="80" y="120" width="140" height="70" as="geometry" />
        </mxCell>
        <mxCell id="ah4opufapIcl6T_tNm1O-21" value="sum +=&amp;nbsp;" style="rounded=0;whiteSpace=wrap;html=1;" vertex="1" parent="ah4opufapIcl6T_tNm1O-9">
          <mxGeometry x="90" y="45" width="120" height="60" as="geometry" />
        </mxCell>
        <mxCell id="ah4opufapIcl6T_tNm1O-32" value="" style="edgeStyle=orthogonalEdgeStyle;rounded=0;orthogonalLoop=1;jettySize=auto;html=1;" edge="1" parent="ah4opufapIcl6T_tNm1O-9" source="ah4opufapIcl6T_tNm1O-22" target="ah4opufapIcl6T_tNm1O-31">
          <mxGeometry relative="1" as="geometry" />
        </mxCell>
        <mxCell id="ah4opufapIcl6T_tNm1O-22" value="index - prefixSum[sum % k]&amp;nbsp; &amp;gt; 2 인가?" style="whiteSpace=wrap;html=1;shape=rhombus;perimeter=rhombusPerimeter;" vertex="1" parent="ah4opufapIcl6T_tNm1O-9">
          <mxGeometry x="70" y="270" width="160" height="60" as="geometry" />
        </mxCell>
        <mxCell id="ah4opufapIcl6T_tNm1O-26" value="prefixSum[sum % k] = index" style="whiteSpace=wrap;html=1;" vertex="1" parent="ah4opufapIcl6T_tNm1O-9">
          <mxGeometry x="334" y="125" width="120" height="60" as="geometry" />
        </mxCell>
        <mxCell id="ah4opufapIcl6T_tNm1O-31" value="return true" style="whiteSpace=wrap;html=1;" vertex="1" parent="ah4opufapIcl6T_tNm1O-9">
          <mxGeometry x="340" y="270" width="120" height="60" as="geometry" />
        </mxCell>
        <mxCell id="ah4opufapIcl6T_tNm1O-7" value="unordered_map&amp;lt;int, int&amp;gt; prefixSum;&lt;br&gt;int sum = 0;" style="ellipse;whiteSpace=wrap;html=1;" vertex="1" parent="1">
          <mxGeometry x="60" y="40" width="280" height="80" as="geometry" />
        </mxCell>
        <mxCell id="ah4opufapIcl6T_tNm1O-11" value="" style="swimlane;startSize=0;" vertex="1" parent="1">
          <mxGeometry x="540" y="50" width="278" height="370" as="geometry" />
        </mxCell>
        <mxCell id="ah4opufapIcl6T_tNm1O-12" value="" style="ellipse;whiteSpace=wrap;html=1;" vertex="1" parent="ah4opufapIcl6T_tNm1O-11">
          <mxGeometry x="24" y="20" width="120" height="80" as="geometry" />
        </mxCell>
        <mxCell id="ah4opufapIcl6T_tNm1O-13" value=": 변수 선언" style="text;html=1;align=center;verticalAlign=middle;whiteSpace=wrap;rounded=0;" vertex="1" parent="ah4opufapIcl6T_tNm1O-11">
          <mxGeometry x="170" y="50" width="60" height="30" as="geometry" />
        </mxCell>
        <mxCell id="ah4opufapIcl6T_tNm1O-14" value="" style="rounded=0;whiteSpace=wrap;html=1;" vertex="1" parent="ah4opufapIcl6T_tNm1O-11">
          <mxGeometry x="24" y="110" width="120" height="60" as="geometry" />
        </mxCell>
        <mxCell id="ah4opufapIcl6T_tNm1O-15" value=": 행동 코드" style="text;html=1;align=center;verticalAlign=middle;whiteSpace=wrap;rounded=0;" vertex="1" parent="ah4opufapIcl6T_tNm1O-11">
          <mxGeometry x="170" y="120" width="60" height="30" as="geometry" />
        </mxCell>
        <mxCell id="ah4opufapIcl6T_tNm1O-16" value="~ 동안" style="swimlane;whiteSpace=wrap;html=1;" vertex="1" parent="ah4opufapIcl6T_tNm1O-11">
          <mxGeometry x="24" y="180" width="120" height="70" as="geometry" />
        </mxCell>
        <mxCell id="ah4opufapIcl6T_tNm1O-17" value=": 반복 구문" style="text;html=1;align=center;verticalAlign=middle;whiteSpace=wrap;rounded=0;" vertex="1" parent="ah4opufapIcl6T_tNm1O-11">
          <mxGeometry x="170" y="200" width="60" height="30" as="geometry" />
        </mxCell>
        <mxCell id="ah4opufapIcl6T_tNm1O-18" value="" style="rhombus;whiteSpace=wrap;html=1;" vertex="1" parent="ah4opufapIcl6T_tNm1O-11">
          <mxGeometry x="24" y="260" width="120" height="80" as="geometry" />
        </mxCell>
        <mxCell id="ah4opufapIcl6T_tNm1O-19" value=": if문" style="text;html=1;align=center;verticalAlign=middle;whiteSpace=wrap;rounded=0;" vertex="1" parent="ah4opufapIcl6T_tNm1O-11">
          <mxGeometry x="156" y="285" width="60" height="30" as="geometry" />
        </mxCell>
        <mxCell id="ah4opufapIcl6T_tNm1O-33" value="return false" style="whiteSpace=wrap;html=1;" vertex="1" parent="1">
          <mxGeometry x="170" y="690" width="120" height="60" as="geometry" />
        </mxCell>
        <mxCell id="ah4opufapIcl6T_tNm1O-34" value="prefixSum[0] = -1" style="whiteSpace=wrap;html=1;" vertex="1" parent="1">
          <mxGeometry x="380" y="50" width="120" height="60" as="geometry" />
        </mxCell>
      </root>
    </mxGraphModel>
  </diagram>
</mxfile>
